<svg width="32" height="32" viewBox="0 0 32 32" fill="none" xmlns="http://www.w3.org/2000/svg">
  <!-- Background circle with gradient -->
  <circle cx="16" cy="16" r="16" fill="url(#gradient)" />
  
  <!-- Document icon -->
  <path d="M10 7C9.44772 7 9 7.44772 9 8V24C9 24.5523 9.44772 25 10 25H22C22.5523 25 23 24.5523 23 24V11.5858C23 11.3226 22.8946 11.0703 22.7071 10.8828L19.1213 7.29289C18.9338 7.10536 18.6815 7 18.4183 7H10Z" fill="white" fill-opacity="0.9"/>
  
  <!-- Document lines -->
  <rect x="11" y="12" width="8" height="1" rx="0.5" fill="#e11d48" fill-opacity="0.7"/>
  <rect x="11" y="15" width="6" height="1" rx="0.5" fill="#e11d48" fill-opacity="0.7"/>
  <rect x="11" y="18" width="7" height="1" rx="0.5" fill="#e11d48" fill-opacity="0.7"/>
  
  <!-- Chat bubble -->
  <circle cx="21" cy="21" r="4" fill="#e11d48"/>
  <path d="M19.5 20.5C19.5 20.2239 19.7239 20 20 20H22C22.2761 20 22.5 20.2239 22.5 20.5C22.5 20.7761 22.2761 21 22 21H20C19.7239 21 19.5 20.7761 19.5 20.5Z" fill="white"/>
  <path d="M19.5 22.5C19.5 22.2239 19.7239 22 20 22H21.5C21.7761 22 22 22.2239 22 22.5C22 22.7761 21.7761 23 21.5 23H20C19.7239 23 19.5 22.7761 19.5 22.5Z" fill="white"/>
  
  <!-- Gradient definition -->
  <defs>
    <linearGradient id="gradient" x1="0%" y1="0%" x2="100%" y2="100%">
      <stop offset="0%" style="stop-color:#e11d48;stop-opacity:1" />
      <stop offset="50%" style="stop-color:#ec4899;stop-opacity:1" />
      <stop offset="100%" style="stop-color:#f97316;stop-opacity:1" />
    </linearGradient>
  </defs>
</svg>